<svg width="35" height="35" viewBox="0 0 35 35" fill="none" xmlns="http://www.w3.org/2000/svg">
<path d="M6.5625 14.2188H2.1875C1.89742 14.2188 1.61922 14.1035 1.4141 13.8984C1.20898 13.6933 1.09375 13.4151 1.09375 13.125C1.09375 12.8349 1.20898 12.5567 1.4141 12.3516C1.61922 12.1465 1.89742 12.0312 2.1875 12.0312H6.5625C6.85258 12.0312 7.13078 12.1465 7.3359 12.3516C7.54102 12.5567 7.65625 12.8349 7.65625 13.125C7.65625 13.4151 7.54102 13.6933 7.3359 13.8984C7.13078 14.1035 6.85258 14.2188 6.5625 14.2188ZM6.5625 18.5938H2.1875C1.89742 18.5938 1.61922 18.4785 1.4141 18.2734C1.20898 18.0683 1.09375 17.7901 1.09375 17.5C1.09375 17.2099 1.20898 16.9317 1.4141 16.7266C1.61922 16.5215 1.89742 16.4062 2.1875 16.4062H6.5625C6.85258 16.4062 7.13078 16.5215 7.3359 16.7266C7.54102 16.9317 7.65625 17.2099 7.65625 17.5C7.65625 17.7901 7.54102 18.0683 7.3359 18.2734C7.13078 18.4785 6.85258 18.5938 6.5625 18.5938ZM6.5625 22.9688H2.1875C1.89742 22.9688 1.61922 22.8535 1.4141 22.6484C1.20898 22.4433 1.09375 22.1651 1.09375 21.875C1.09375 21.5849 1.20898 21.3067 1.4141 21.1016C1.61922 20.8965 1.89742 20.7812 2.1875 20.7812H6.5625C6.85258 20.7812 7.13078 20.8965 7.3359 21.1016C7.54102 21.3067 7.65625 21.5849 7.65625 21.875C7.65625 22.1651 7.54102 22.4433 7.3359 22.6484C7.13078 22.8535 6.85258 22.9688 6.5625 22.9688ZM30.625 35H10.9375C10.6474 35 10.3692 34.8848 10.1641 34.6796C9.95898 34.4745 9.84375 34.1963 9.84375 33.9062V1.09375C9.84375 0.803669 9.95898 0.52547 10.1641 0.320352C10.3692 0.115234 10.6474 0 10.9375 0L30.625 0C31.4952 0 32.3298 0.345702 32.9452 0.961056C33.5605 1.57641 33.9062 2.41101 33.9062 3.28125V31.7188C33.9062 32.589 33.5605 33.4236 32.9452 34.0389C32.3298 34.6543 31.4952 35 30.625 35ZM12.0312 32.8125H30.625C30.9151 32.8125 31.1933 32.6973 31.3984 32.4921C31.6035 32.287 31.7188 32.0088 31.7188 31.7188V3.28125C31.7188 2.99117 31.6035 2.71297 31.3984 2.50785C31.1933 2.30273 30.9151 2.1875 30.625 2.1875H12.0312V32.8125Z" fill="#6D6F7D"/>
<path d="M10.9375 35H6.5625C5.69226 35 4.85766 34.6543 4.24231 34.0389C3.62695 33.4236 3.28125 32.589 3.28125 31.7188V3.28125C3.28125 2.41101 3.62695 1.57641 4.24231 0.961056C4.85766 0.345702 5.69226 0 6.5625 0L10.9375 0C11.2276 0 11.5058 0.115234 11.7109 0.320352C11.916 0.52547 12.0312 0.803669 12.0312 1.09375V33.9062C12.0312 34.1963 11.916 34.4745 11.7109 34.6796C11.5058 34.8848 11.2276 35 10.9375 35ZM6.5625 2.1875C6.27242 2.1875 5.99422 2.30273 5.7891 2.50785C5.58398 2.71297 5.46875 2.99117 5.46875 3.28125V31.7188C5.46875 32.0088 5.58398 32.287 5.7891 32.4921C5.99422 32.6973 6.27242 32.8125 6.5625 32.8125H9.84375V2.1875H6.5625ZM21.875 16.4062C21.226 16.4062 20.5916 16.2138 20.052 15.8533C19.5124 15.4927 19.0919 14.9803 18.8435 14.3807C18.5952 13.7811 18.5302 13.1214 18.6568 12.4849C18.7834 11.8484 19.0959 11.2637 19.5548 10.8048C20.0137 10.3459 20.5984 10.0334 21.2349 9.9068C21.8714 9.78019 22.5311 9.84517 23.1307 10.0935C23.7303 10.3419 24.2427 10.7624 24.6033 11.302C24.9638 11.8416 25.1562 12.476 25.1562 13.125C25.1562 13.9952 24.8105 14.8298 24.1952 15.4452C23.5798 16.0605 22.7452 16.4062 21.875 16.4062ZM21.875 12.0312C21.6587 12.0312 21.4472 12.0954 21.2673 12.2156C21.0875 12.3358 20.9473 12.5066 20.8645 12.7064C20.7817 12.9063 20.7601 13.1262 20.8023 13.3384C20.8445 13.5505 20.9486 13.7454 21.1016 13.8984C21.2546 14.0514 21.4495 14.1555 21.6616 14.1977C21.8738 14.2399 22.0937 14.2183 22.2936 14.1355C22.4934 14.0527 22.6642 13.9125 22.7844 13.7327C22.9046 13.5528 22.9688 13.3413 22.9688 13.125C22.9688 12.8349 22.8535 12.5567 22.6484 12.3516C22.4433 12.1465 22.1651 12.0312 21.875 12.0312ZM27.3438 25.1562H16.4062C16.1162 25.1562 15.838 25.041 15.6329 24.8359C15.4277 24.6308 15.3125 24.3526 15.3125 24.0625V22.9688C15.3125 21.5183 15.8887 20.1273 16.9143 19.1018C17.9398 18.0762 19.3308 17.5 20.7812 17.5H22.9688C24.4192 17.5 25.8102 18.0762 26.8357 19.1018C27.8613 20.1273 28.4375 21.5183 28.4375 22.9688V24.0625C28.4375 24.3526 28.3223 24.6308 28.1171 24.8359C27.912 25.041 27.6338 25.1562 27.3438 25.1562ZM17.5 22.9688H26.25C26.25 22.0985 25.9043 21.2639 25.2889 20.6486C24.6736 20.0332 23.839 19.6875 22.9688 19.6875H20.7812C19.911 19.6875 19.0764 20.0332 18.4611 20.6486C17.8457 21.2639 17.5 22.0985 17.5 22.9688Z" fill="#6D6F7D"/>
</svg>
